<?xml version="1.0" encoding="UTF-8"?>
<svg width="120" height="120" viewBox="0 0 120 120" fill="none" xmlns="http://www.w3.org/2000/svg">
  <g filter="url(#filter0_d_1_21)">
    <path d="M60 10L110 110H10L60 10Z" fill="#646CFF"/>
    <path d="M60 10L110 110H60V10Z" fill="#747BFF"/>
    <path d="M60 10L10 110H60V10Z" fill="#535BF2"/>
    <path d="M60 110C77.6731 110 92 95.6731 92 78C92 60.3269 77.6731 46 60 46C42.3269 46 28 60.3269 28 78C28 95.6731 42.3269 110 60 110Z" fill="#FFD600"/>
    <path d="M60 110C77.6731 110 92 95.6731 92 78C92 60.3269 77.6731 46 60 46V110Z" fill="#FFB300"/>
  </g>
  <defs>
    <filter id="filter0_d_1_21" x="0" y="0" width="120" height="120" filterUnits="userSpaceOnUse" color-interpolation-filters="sRGB">
      <feFlood flood-opacity="0" result="BackgroundImageFix"/>
      <feColorMatrix in="SourceAlpha" type="matrix" values="0 0 0 0 0 0 0 0 0 0 0 0 0 0 0 0 0 0 127 0" result="hardAlpha"/>
      <feOffset dy="4"/>
      <feGaussianBlur stdDeviation="5"/>
      <feComposite in2="hardAlpha" operator="out"/>
      <feColorMatrix type="matrix" values="0 0 0 0 0.392157 0 0 0 0 0.423529 0 0 0 0 1 0 0 0 0.25 0"/>
      <feBlend mode="normal" in2="BackgroundImageFix" result="effect1_dropShadow_1_21"/>
      <feBlend mode="normal" in="SourceGraphic" in2="effect1_dropShadow_1_21" result="shape"/>
    </filter>
  </defs>
</svg> 